<svg xmlns="http://www.w3.org/2000/svg" xmlns:xlink="http://www.w3.org/1999/xlink" version="1.1" x="0px" y="0px" viewBox="0 0 100 125" enable-background="new 0 0 100 100" xml:space="preserve"><g><path fill="#000000" d="M94.999,33.633v-4.966c-0.003-8.554-6.931-15.482-15.485-15.485h-59.03   C11.931,13.184,5.002,20.113,5,28.667v42.666c0.002,8.553,6.931,15.482,15.485,15.485h59.03   c8.553-0.003,15.482-6.931,15.485-15.485V33.64L95,33.637L94.999,33.633z M20.485,21.363h59.03   c4.032,0.007,7.296,3.272,7.304,7.304v0.879H13.181v-0.879C13.189,24.635,16.452,21.371,20.485,21.363z M79.515,78.637h-59.03   c-4.032-0.007-7.296-3.271-7.304-7.303V37.727h73.637v33.606C86.811,75.365,83.546,78.629,79.515,78.637z"/><path fill="#000000" d="M38.916,48.799c-1.598-1.597-4.188-1.597-5.785,0l-6.248,6.249l-0.001,0.001   c-0.799,0.799-1.199,1.846-1.198,2.893c-0.001,1.047,0.399,2.094,1.198,2.893l0.001,0.001l6.248,6.249   c1.597,1.598,4.187,1.598,5.785,0c1.597-1.598,1.597-4.188,0-5.785l-3.357-3.357l3.357-3.357   C40.513,52.987,40.513,50.397,38.916,48.799z"/><path fill="#000000" d="M73.604,56.403c-0.2-0.492-0.499-0.954-0.899-1.353l-6.25-6.25c-1.597-1.598-4.188-1.598-5.785,0   c-1.597,1.597-1.597,4.188,0,5.785l3.357,3.357l-3.357,3.357c-1.597,1.598-1.597,4.188,0,5.785c1.597,1.598,4.187,1.598,5.785,0   l6.25-6.25c0.799-0.799,1.199-1.846,1.199-2.893C73.904,57.419,73.803,56.896,73.604,56.403z"/><path fill="#000000" d="M54.858,43.514c-2.132-0.748-4.467,0.373-5.216,2.505l-7.42,21.136c-0.748,2.132,0.374,4.467,2.505,5.215   c2.132,0.748,4.467-0.373,5.216-2.505l7.42-21.136C58.111,46.597,56.989,44.263,54.858,43.514z"/></g><text x="0" y="115" fill="#000000" font-size="5px" font-weight="bold" font-family="'Helvetica Neue', Helvetica, Arial-Unicode, Arial, Sans-serif">Created by Viktor Ostrovsky</text><text x="0" y="120" fill="#000000" font-size="5px" font-weight="bold" font-family="'Helvetica Neue', Helvetica, Arial-Unicode, Arial, Sans-serif">from the Noun Project</text></svg>